<?xml version="1.0" encoding="UTF-8" standalone="no"?> <svg xmlns="http://www.w3.org/2000/svg" viewBox="0 0 32 32"><defs><style>.cls-1{fill:#8fa5a5;}.cls-2{fill:#0081bd;}.cls-3{fill:#009ae0;}.cls-4{fill:#eaeff0;}</style></defs><title>Parking Lot</title><g id="Parking_Lot" data-name="Parking Lot"><path class="cls-1" d="M19,30H13a1,1,0,0,1-1-1V25a1,1,0,0,1,1-1h6a1,1,0,0,1,1,1v4A1,1,0,0,1,19,30Z"/><path class="cls-2" d="M23,26H9a5.006,5.006,0,0,1-5-5V7A5.006,5.006,0,0,1,9,2H23a5.006,5.006,0,0,1,5,5V21A5.006,5.006,0,0,1,23,26Z"/><rect class="cls-3" x="6" y="4" width="20" height="20" rx="3"/><path class="cls-4" d="M17,8H13a1,1,0,0,0-1,1V19a1,1,0,0,0,1,1h1a1,1,0,0,0,1-1V16h2a4,4,0,0,0,0-8Zm0,5H15V11h2a1,1,0,0,1,0,2Z"/></g></svg>